<?xml version="1.0" standalone="no"?>
<!DOCTYPE svg PUBLIC "-//W3C//DTD SVG 20010904//EN"
 "http://www.w3.org/TR/2001/REC-SVG-20010904/DTD/svg10.dtd">
<svg version="1.0" xmlns="http://www.w3.org/2000/svg"
 width="225.000000pt" height="225.000000pt" viewBox="0 0 225.000000 225.000000"
 preserveAspectRatio="xMidYMid meet">
<metadata>
Created by potrace 1.14, written by Peter Selinger 2001-2017
</metadata>
<g transform="translate(0.000000,225.000000) scale(0.100000,-0.100000)"
fill="#000000" stroke="none">
<path d="M1364 1662 c3 -5 -24 -19 -59 -31 -36 -13 -65 -25 -65 -28 0 -3 7 -2
16 1 9 4 22 2 28 -3 7 -6 25 -2 50 10 22 10 45 19 52 19 17 0 7 27 -12 34 -8
3 -13 2 -10 -2z"/>
<path d="M1449 1609 c-25 -13 -30 -19 -18 -24 8 -3 29 0 46 7 23 10 28 16 19
24 -9 8 -21 7 -47 -7z"/>
<path d="M1067 1543 c-81 -31 -145 -58 -143 -60 4 -5 296 104 305 113 11 10
-23 -1 -162 -53z"/>
<path d="M1375 1577 c-11 -7 -66 -28 -122 -46 -57 -18 -103 -38 -103 -43 0 -6
-7 -7 -16 -4 -8 3 -13 2 -10 -3 3 -5 -14 -12 -38 -15 -49 -8 -79 -31 -53 -42
21 -8 357 126 357 142 0 7 6 15 13 17 6 3 7 6 2 6 -6 1 -19 -5 -30 -12z"/>
<path d="M1530 1559 c-30 -17 -46 -27 -35 -23 11 4 34 8 50 9 17 1 35 3 40 5
14 4 28 8 39 9 10 1 -24 31 -34 30 -3 0 -30 -13 -60 -30z"/>
<path d="M1640 1560 c0 -5 7 -7 15 -4 8 4 15 8 15 10 0 2 -7 4 -15 4 -8 0 -15
-4 -15 -10z"/>
<path d="M1688 1551 c13 -7 1 -13 -176 -93 -24 -11 -41 -22 -39 -25 3 -2 28 7
56 21 59 30 61 31 61 11 0 -20 0 -20 65 12 36 18 50 30 42 35 -7 5 -1 8 17 8
l29 0 -23 20 c-13 11 -28 20 -34 20 -6 0 -6 -4 2 -9z"/>
<path d="M1436 1521 c-4 -5 3 -7 14 -4 23 6 26 13 6 13 -8 0 -17 -4 -20 -9z"/>
<path d="M1770 1520 c0 -5 5 -10 11 -10 5 0 7 5 4 10 -3 6 -8 10 -11 10 -2 0
-4 -4 -4 -10z"/>
<path d="M1824 1511 c3 -4 -6 -14 -19 -21 -14 -7 -25 -17 -25 -21 0 -15 50
-18 81 -4 28 12 30 14 12 15 -13 0 -23 6 -23 14 0 8 -7 17 -16 20 -8 3 -13 2
-10 -3z"/>
<path d="M1390 1500 c-8 -5 -10 -10 -5 -10 6 0 17 5 25 10 8 5 11 10 5 10 -5
0 -17 -5 -25 -10z"/>
<path d="M1315 1469 c-22 -10 -29 -16 -15 -13 28 7 80 33 65 33 -5 0 -28 -9
-50 -20z"/>
<path d="M830 1449 c0 -5 -4 -8 -9 -5 -5 3 -58 -12 -117 -35 -229 -85 -447
-158 -457 -152 -6 3 -7 1 -4 -4 9 -14 -74 -25 -90 -11 -17 14 -16 7 4 -75 20
-86 43 -106 96 -84 35 15 35 15 95 -34 62 -50 66 -56 78 -124 12 -70 56 -105
103 -80 17 8 35 15 40 15 6 0 41 -26 79 -58 38 -31 83 -68 101 -82 27 -21 33
-34 42 -90 8 -57 14 -69 47 -97 20 -18 42 -31 48 -29 6 2 37 21 69 43 32 21
77 49 100 63 45 27 259 164 383 245 42 28 98 63 125 78 26 15 47 34 47 42 0 8
4 17 10 20 6 3 7 -1 4 -10 -6 -15 63 25 256 150 52 33 118 75 147 93 39 25 51
38 48 53 -2 11 0 17 6 14 5 -4 6 -11 3 -17 -4 -6 -1 -9 7 -6 7 2 17 22 21 44
5 21 13 49 19 61 11 20 6 43 -9 43 -4 0 -12 -10 -17 -22 -6 -13 -38 -38 -72
-58 -35 -19 -63 -40 -63 -45 0 -12 -291 -188 -298 -180 -3 2 1 12 9 21 7 9 -3
5 -23 -8 -20 -14 -50 -31 -67 -38 -17 -7 -31 -16 -31 -21 0 -5 -5 -9 -11 -9
-7 0 -18 -8 -26 -17 -8 -10 -12 -12 -8 -6 4 8 1 11 -8 7 -8 -3 -13 -13 -10
-22 3 -13 -19 -32 -89 -74 -452 -272 -428 -259 -428 -240 0 10 55 52 68 52 4
0 17 7 28 15 18 14 17 14 -11 4 -37 -13 -97 -49 -110 -66 -5 -7 -19 -15 -30
-18 -11 -2 -31 -7 -45 -11 -15 -4 -22 -3 -17 2 5 5 12 9 15 9 17 1 52 27 47
35 -3 5 3 13 12 19 13 8 14 10 4 11 -11 0 -9 4 5 14 16 13 17 14 2 12 -10 -1
-21 -5 -24 -9 -4 -4 -11 -7 -16 -7 -5 0 -2 7 7 16 25 25 11 27 -29 4 -46 -25
-65 -26 -63 -1 1 15 4 17 14 9 8 -6 16 -9 18 -6 3 3 -1 11 -10 18 -14 12 -14
15 2 33 15 16 9 15 -35 -8 -29 -15 -55 -31 -58 -36 -10 -17 -38 -9 -67 19 -19
17 -31 23 -34 15 -2 -7 -11 -9 -19 -6 -7 3 -11 9 -8 14 3 5 0 9 -7 9 -7 0 -9
3 -6 6 4 4 12 2 19 -4 9 -7 17 -5 28 6 13 14 13 15 -1 10 -9 -3 -22 -2 -29 2
-11 7 -7 12 13 21 14 6 24 16 21 20 -3 5 -1 9 4 9 6 0 147 67 313 150 167 82
298 150 290 150 -7 0 -30 -9 -50 -19 -20 -10 -81 -40 -136 -66 -55 -26 -134
-65 -176 -86 -42 -21 -80 -35 -84 -31 -5 4 -5 1 -1 -6 5 -8 3 -13 -5 -12 -21
3 -59 -11 -59 -22 0 -5 -4 -7 -8 -4 -5 3 -26 -6 -46 -20 -21 -15 -43 -27 -49
-28 -7 -1 -16 -4 -22 -7 -34 -20 -61 -17 -92 11 -18 17 -33 36 -33 44 0 14 36
32 53 28 5 -1 6 2 2 8 -3 5 4 14 17 19 13 5 128 56 255 114 272 123 270 123
275 103 3 -13 10 -12 48 6 25 11 40 22 33 25 -7 2 -9 11 -6 19 7 19 2 18 -69
-15 -287 -132 -386 -171 -421 -164 -39 8 -97 -5 -97 -22 0 -7 6 -15 13 -18 19
-6 -124 -76 -159 -77 -12 0 -59 38 -53 44 2 1 13 9 24 15 19 12 19 12 -2 8
-13 -3 -23 -1 -23 3 0 5 10 12 23 16 12 4 24 10 27 14 3 4 61 30 130 59 167
70 167 70 151 70 -17 1 -180 -63 -246 -97 -27 -14 -56 -25 -62 -24 -7 2 -26
-4 -42 -13 -28 -14 -31 -14 -60 11 -17 14 -31 21 -31 14 0 -6 -5 -8 -11 -4
-16 9 61 53 94 54 16 0 49 9 75 20 50 21 320 124 437 167 82 30 84 31 65 43
-18 11 -52 4 -104 -22 -21 -11 -48 -21 -60 -24 -11 -2 -30 -8 -41 -13 -43 -21
-92 -39 -134 -51 -24 -6 -67 -22 -95 -35 -28 -13 -64 -27 -79 -30 -15 -4 -27
-11 -27 -17 0 -5 -4 -7 -9 -3 -5 3 -12 1 -16 -5 -4 -6 -11 -8 -16 -5 -5 4 -9
2 -9 -4 0 -5 -23 -14 -51 -20 -43 -10 -54 -9 -74 6 -31 23 -31 29 2 38 16 4
34 12 41 18 25 20 527 203 533 194 8 -11 49 9 49 23 0 6 -7 10 -15 10 -8 0
-15 -5 -15 -11z m822 -401 c-7 -7 -12 -8 -12 -2 0 14 12 26 19 19 2 -3 -1 -11
-7 -17z m-1151 -100 c11 -21 11 -22 -4 -9 -10 7 -17 17 -17 22 0 15 9 10 21
-13z m406 -199 c-19 -11 -55 0 -37 11 7 4 21 5 32 2 17 -4 18 -6 5 -13z m-62
-47 c-3 -3 -11 0 -18 7 -9 10 -8 11 6 5 10 -3 15 -9 12 -12z m132 -30 c1 -12
-10 -23 -30 -31 -19 -7 -27 -15 -19 -18 7 -3 19 0 26 7 15 12 29 0 18 -15 -9
-12 -52 -15 -52 -3 0 13 -38 9 -43 -4 -4 -9 -6 -8 -6 2 0 8 23 29 52 47 29 18
52 32 52 33 1 0 1 -8 2 -18z"/>
<path d="M1240 1440 c-8 -5 -10 -10 -5 -10 6 0 17 5 25 10 8 5 11 10 5 10 -5
0 -17 -5 -25 -10z"/>
<path d="M1710 1440 c-8 -5 -10 -10 -5 -10 6 0 17 5 25 10 8 5 11 10 5 10 -5
0 -17 -5 -25 -10z"/>
<path d="M1925 1424 c-33 -13 -64 -29 -70 -35 -5 -6 7 -3 27 7 30 14 44 15 71
7 25 -7 36 -7 45 4 8 7 23 11 36 7 14 -3 27 1 35 10 11 13 8 14 -22 9 -20 -3
-37 -1 -41 6 -9 15 -11 14 -81 -15z"/>
<path d="M1195 1420 c-3 -6 1 -7 9 -4 18 7 21 14 7 14 -6 0 -13 -4 -16 -10z"/>
<path d="M1410 1410 c-19 -11 -30 -19 -25 -19 6 0 26 8 45 19 19 11 31 19 25
19 -5 0 -26 -8 -45 -19z"/>
<path d="M1630 1400 c-9 -6 -10 -10 -3 -10 6 0 15 5 18 10 8 12 4 12 -15 0z"/>
<path d="M2060 1402 c0 -14 11 -21 26 -15 21 8 17 23 -6 23 -11 0 -20 -4 -20
-8z"/>
<path d="M2033 1376 c-6 -8 -9 -16 -6 -19 9 -10 33 4 33 19 0 18 -11 17 -27 0z"/>
<path d="M1325 1370 c-3 -6 1 -7 9 -4 18 7 21 14 7 14 -6 0 -13 -4 -16 -10z"/>
<path d="M1195 1360 c3 -5 17 -10 31 -10 13 0 24 5 24 10 0 6 -14 10 -31 10
-17 0 -28 -4 -24 -10z"/>
<path d="M1550 1360 c-9 -6 -10 -10 -3 -10 6 0 15 5 18 10 8 12 4 12 -15 0z"/>
<path d="M1795 1360 c-3 -6 1 -7 9 -4 18 7 21 14 7 14 -6 0 -13 -4 -16 -10z"/>
<path d="M1280 1350 c-8 -5 -10 -10 -5 -10 6 0 17 5 25 10 8 5 11 10 5 10 -5
0 -17 -5 -25 -10z"/>
<path d="M1985 1352 c-6 -5 -26 -15 -45 -22 -19 -8 -37 -16 -40 -19 -3 -4 -27
-17 -53 -30 -27 -12 -47 -25 -44 -27 5 -6 90 28 108 43 8 7 22 13 30 13 16 0
79 49 64 50 -6 0 -15 -4 -20 -8z"/>
<path d="M1045 1340 c27 -12 43 -12 25 0 -8 5 -22 9 -30 9 -10 0 -8 -3 5 -9z"/>
<path d="M1755 1340 c-3 -6 1 -7 9 -4 18 7 21 14 7 14 -6 0 -13 -4 -16 -10z"/>
<path d="M885 1295 c-38 -18 -67 -34 -64 -34 7 -1 151 58 158 65 15 14 -35 -2
-94 -31z"/>
<path d="M1546 1291 c-4 -6 -13 -10 -19 -8 -12 4 -67 -19 -67 -29 0 -2 8 -1
18 4 9 5 35 10 56 11 43 2 89 22 68 29 -7 2 -19 -1 -26 -7 -11 -9 -15 -9 -18
1 -3 9 -6 9 -12 -1z"/>
<path d="M1628 1280 c-33 -18 -58 -40 -44 -40 3 0 27 14 53 30 53 34 48 39 -9
10z"/>
<path d="M755 1240 c-3 -6 1 -7 9 -4 18 7 21 14 7 14 -6 0 -13 -4 -16 -10z"/>
<path d="M1770 1239 c0 -5 5 -7 10 -4 6 3 10 8 10 11 0 2 -4 4 -10 4 -5 0 -10
-5 -10 -11z"/>
<path d="M1290 1221 c0 -5 9 -11 21 -14 12 -3 18 -10 14 -16 -4 -7 0 -8 11 -4
14 5 13 8 -7 24 -26 20 -39 24 -39 10z"/>
<path d="M1530 1220 c-9 -6 -10 -10 -3 -10 6 0 15 5 18 10 8 12 4 12 -15 0z"/>
<path d="M1640 1200 c0 -5 5 -10 10 -10 6 0 10 5 10 10 0 6 -4 10 -10 10 -5 0
-10 -4 -10 -10z"/>
<path d="M1695 1200 c-3 -6 1 -7 9 -4 18 7 21 14 7 14 -6 0 -13 -4 -16 -10z"/>
<path d="M1422 1161 c-7 -4 1 -12 24 -20 19 -7 37 -11 39 -9 9 8 -52 36 -63
29z"/>
<path d="M1370 1135 c-14 -8 -20 -14 -14 -15 5 0 19 7 30 15 24 18 16 19 -16
0z"/>
<path d="M1295 1090 c-3 -6 1 -7 9 -4 18 7 21 14 7 14 -6 0 -13 -4 -16 -10z"/>
<path d="M1239 1063 c-13 -15 -12 -15 9 -4 23 12 28 21 13 21 -5 0 -15 -7 -22
-17z"/>
<path d="M1010 1030 c-9 -6 -10 -10 -3 -10 6 0 15 5 18 10 8 12 4 12 -15 0z"/>
<path d="M1101 994 c-19 -13 -30 -24 -24 -24 5 0 24 11 43 25 43 32 26 31 -19
-1z"/>
<path d="M940 996 c0 -2 7 -7 16 -10 8 -3 12 -2 9 4 -6 10 -25 14 -25 6z"/>
<path d="M1357 956 c-19 -13 -38 -22 -41 -18 -3 3 -6 0 -6 -6 0 -7 -8 -12 -17
-12 -22 -1 -59 -27 -50 -36 6 -6 157 82 157 92 0 7 -7 4 -43 -20z"/>
<path d="M882 946 c10 -7 15 -16 11 -19 -3 -4 -2 -7 4 -7 6 0 16 6 22 14 9 11
7 15 -11 20 -36 9 -45 7 -26 -8z"/>
<path d="M1020 950 c-9 -6 -10 -10 -3 -10 6 0 15 5 18 10 8 12 4 12 -15 0z"/>
<path d="M951 909 c-13 -5 -21 -12 -18 -15 3 -3 18 1 34 10 31 17 21 20 -16 5z"/>
<path d="M1047 883 c-4 -3 -7 -11 -7 -17 0 -6 5 -5 12 2 6 6 9 14 7 17 -3 3
-9 2 -12 -2z"/>
<path d="M1148 862 c-20 -12 -26 -22 -22 -36 4 -12 2 -16 -5 -12 -6 4 -11 2
-11 -4 0 -6 -5 -8 -12 -4 -7 4 -8 3 -4 -5 8 -13 59 12 79 39 9 12 9 13 -3 3
-8 -7 -21 -13 -29 -13 -9 0 -2 9 17 21 49 32 40 41 -10 11z"/>
<path d="M738 863 c6 -2 18 -2 25 0 6 3 1 5 -13 5 -14 0 -19 -2 -12 -5z"/>
<path d="M1010 860 c-9 -6 -10 -10 -3 -10 6 0 15 5 18 10 8 12 4 12 -15 0z"/>
</g>
</svg>
